<svg xmlns="http://www.w3.org/2000/svg" width="105" height="180" fill-rule="evenodd" clip-rule="evenodd" image-rendering="optimizeQuality" shape-rendering="geometricPrecision" text-rendering="geometricPrecision" viewBox="0 0 78135 134068" id="environment">
  <path fill="#5fdc68" d="M39163 35275c-18378,-19652 2372,-50020 34485,-27038 0,0 -8927,-1128 -12570,3322 -5004,6116 1722,21047 -21915,23716z"></path>
  <path fill="#75bd80" d="M66289 3809c2373,1154 4829,2618 7359,4428 0,0 -8927,-1128 -12570,3322 -1375,1682 -1840,4198 -2282,7021l0 0c-501,-2722 74,-13163 7493,-14771z"></path>
  <path fill="#ffe356" fill-rule="nonzero" d="M59109 4739c-20256,-872 -21629,19801 -21758,54082l3678 0c103,-18337 -3267,-55476 18080,-54082z"></path>
  <path fill="#5fdc68" d="M33660 41622c6098,-16659 -19448,-28144 -29632,-6691 0,0 5129,-2983 8485,-1219 4612,2424 6113,12374 21147,7910z"></path>
  <path fill="#ffe356" fill-rule="nonzero" d="M12123 28047c10493,-5668 21845,10216 25590,18070l247 6198c-5005,-10542 -15419,-28470 -25837,-24268z"></path>
  <path fill="#5fdc68" fill-rule="nonzero" d="M39067 55934c10789,0 20557,4372 27626,11442 7069,7069 11442,16836 11442,27625 0,10788 -4373,20556 -11442,27625 -7069,7069 -16837,11442 -27626,11442 -10788,0 -20555,-4373 -27624,-11442 -7070,-7069 -11443,-16837 -11443,-27625 0,-10789 4373,-20556 11443,-27625 7069,-7070 16836,-11442 27624,-11442zm27983 60422c-2505,-1075 -5642,-1943 -9170,-2603 -330,707 -680,1405 -1050,2094 -2861,5321 -6900,10105 -12116,13902 7459,-1202 14134,-4748 19244,-9858 1107,-1108 2140,-2288 3092,-3535zm-13151 -3238c-4049,-545 -8446,-850 -12897,-917l0 15433c5430,-3589 9574,-8306 12427,-13615 161,-298 317,-599 470,-901zm-16766 -915c-4446,70 -8841,381 -12891,927 151,298 305,594 463,889 2854,5309 6997,10026 12428,13615l0 -15431zm-16873 1564c-3521,658 -6657,1523 -9172,2594 951,1244 1983,2424 3089,3530 5110,5110 11785,8656 19244,9858 -5217,-3797 -9256,-8581 -12116,-13902 -367,-685 -716,-1378 -1045,-2080zm-11374 -643c2703,-1229 6082,-2223 9873,-2980 -1537,-4245 -2405,-8707 -2606,-13196l-12231 0c321,5895 2093,11404 4964,16176zm13740 -3651c4549,-679 9511,-1059 14507,-1138l0 -11387 -17122 0c210,4269 1081,8511 2615,12525zm18376 -1141c5002,75 9967,451 14512,1125 1531,-4009 2401,-8245 2610,-12509l-17122 0 0 11384zm18379 1796c3801,757 7181,1753 9873,2987 2868,-4770 4637,-10276 4959,-16167l-12231 0c-200,4483 -1067,8939 -2601,13180zm9045 -34553c-2579,1245 -5826,2251 -9482,3020 1828,4624 2843,9538 3046,14485l12225 0c-347,-6450 -2430,-12437 -5789,-17505zm-13357 3723c-4404,684 -9216,1064 -14067,1142l0 12640 17130 0c-210,-4722 -1231,-9405 -3063,-13782zm-17936 1139c-4846,-82 -9656,-467 -14062,-1152 -1835,4381 -2858,9069 -3069,13795l17131 0 0 -12643zm-17936 -1856c-3651,-767 -6898,-1770 -9486,-3009 -3361,5068 -5444,11057 -5791,17508l12226 0c202,-4953 1219,-9871 3051,-14499zm-7124 -6171c2399,1060 5387,1919 8742,2576 184,-361 372,-720 566,-1077 2846,-5230 6841,-9922 11981,-13647 -7436,1212 -14088,4752 -19185,9849 -735,734 -1437,1502 -2104,2299zm12749 3241c3870,540 8066,846 12311,918l0 -14218c-5361,3502 -9465,8109 -12311,13300zm16180 921c4252,-69 8450,-371 12319,-906 -2847,-5199 -6954,-9809 -12319,-13315l0 14221zm16326 -1570c3364,-657 6353,-1518 8742,-2582 -669,-801 -1375,-1572 -2112,-2309 -5097,-5097 -11750,-8637 -19185,-9849 5140,3725 9135,8417 11981,13647 197,362 388,727 574,1093z"></path>
  <path fill="#75bd80" d="M6445 30804c-780,1184 -1743,2596 -2417,4127 4840,-2583 8141,-2517 11060,1016 -1534,-2587 -5051,-6340 -8643,-5143z"></path>
</svg>
