<svg width="63" height="64" viewBox="0 0 63 64" fill="none" xmlns="http://www.w3.org/2000/svg">
<path d="M62.5 32C62.5 49.4044 48.6134 63.5 31.5 63.5C14.3866 63.5 0.5 49.4044 0.5 32C0.5 14.5956 14.3866 0.5 31.5 0.5C48.6134 0.5 62.5 14.5956 62.5 32Z" fill="#FCFCFA" stroke="#DCBDA8"/>
<path d="M45.4111 33.8046C44.9236 34.2921 44.4399 34.7758 43.9524 35.2633C42.7831 36.4325 41.6177 37.598 40.4485 38.7672C39.0431 40.1726 37.6339 41.5779 36.2286 42.9871C35.0136 44.2021 33.7949 45.4208 32.5799 46.6358C31.9896 47.2261 31.3802 47.8088 30.8013 48.4144C30.7937 48.422 30.7823 48.4334 30.7746 48.441C31.3117 48.441 31.8525 48.441 32.3895 48.441C31.8258 47.8774 31.2583 47.3099 30.6947 46.7462C29.3807 45.4322 28.0667 44.1183 26.7528 42.8043C25.237 41.2885 23.7249 39.7765 22.2091 38.2607C21.0399 37.0914 19.8706 35.9222 18.7014 34.7529C18.4196 34.4711 18.1377 34.1893 17.8559 33.9074C17.7835 33.8351 17.7074 33.7589 17.635 33.6865C17.5055 33.5532 17.3798 33.4161 17.2618 33.2752C17.2008 33.2066 17.1437 33.1343 17.0866 33.0657C17.0523 33.0238 17.018 32.9781 16.9837 32.9362C17.2161 33.2143 17.0789 33.0581 17.0294 32.9934C16.7933 32.6773 16.5724 32.3421 16.3782 31.9993C16.1954 31.6756 16.0278 31.3404 15.883 30.9939C15.9211 31.0853 15.9592 31.1767 15.9973 31.2681C15.6621 30.4721 15.4374 29.638 15.3194 28.7849C15.3346 28.8877 15.346 28.9867 15.3613 29.0896C15.247 28.225 15.247 27.349 15.3613 26.4807C15.346 26.5835 15.3346 26.6825 15.3194 26.7854C15.4374 25.9322 15.6621 25.0982 15.9973 24.306C15.9592 24.3974 15.9211 24.4888 15.883 24.5802C16.1001 24.0698 16.3591 23.5823 16.6562 23.1177C16.7362 22.9958 16.8162 22.8777 16.8999 22.7597C16.9418 22.6987 16.9837 22.6416 17.0294 22.5845C17.2046 22.3522 16.8961 22.7521 17.018 22.5997C17.197 22.3788 17.3836 22.1617 17.5817 21.9523C17.8026 21.7199 18.0349 21.499 18.2748 21.2896C18.3396 21.2324 18.4043 21.1791 18.4691 21.1258C18.5338 21.0725 18.7852 20.9011 18.4843 21.1067C18.6138 21.0191 18.7357 20.9201 18.8652 20.8287C19.4022 20.4593 19.9735 20.147 20.5714 19.8918C20.48 19.9299 20.3886 19.968 20.2972 20.0061C21.0856 19.6785 21.9082 19.45 22.7499 19.3319C22.6471 19.3472 22.5481 19.3586 22.4453 19.3738C23.325 19.2558 24.2124 19.2558 25.0922 19.3738C24.9894 19.3586 24.8904 19.3472 24.7875 19.3319C25.633 19.45 26.4557 19.6747 27.2403 20.0061C27.1489 19.968 27.0575 19.9299 26.9661 19.8918C27.4954 20.1165 28.0058 20.3869 28.4895 20.703C28.6114 20.783 28.7332 20.8668 28.8513 20.9506C28.9199 21.0001 28.9846 21.0534 29.0532 21.0991C28.7751 20.9087 28.9579 21.0268 29.0227 21.0763C29.2626 21.2705 29.495 21.4762 29.7159 21.6933C30.0701 22.0399 30.4166 22.3941 30.767 22.7444C31.205 23.1824 31.9439 23.1824 32.3819 22.7444C32.7894 22.3369 33.1855 21.9218 33.6044 21.5295C33.8063 21.3391 34.0196 21.1677 34.2328 20.9925C33.9396 21.24 34.1491 21.0572 34.2176 21.0039C34.2747 20.962 34.3357 20.9201 34.3928 20.8782C34.4956 20.8059 34.6023 20.7335 34.7089 20.6649C35.1736 20.3641 35.6649 20.1051 36.1714 19.8918C36.08 19.9299 35.9886 19.968 35.8972 20.0061C36.6932 19.6709 37.5235 19.4462 38.3766 19.3281C38.2738 19.3434 38.1747 19.3548 38.0719 19.37C38.9365 19.2558 39.8124 19.2558 40.6808 19.37C40.578 19.3548 40.4789 19.3434 40.3761 19.3281C41.2292 19.4462 42.0633 19.6709 42.8555 20.0061C42.7641 19.968 42.6727 19.9299 42.5813 19.8918C43.0079 20.0746 43.4192 20.2841 43.8153 20.524C44.0171 20.6459 44.2114 20.7754 44.4018 20.9125C44.4475 20.943 44.4894 20.9773 44.5351 21.0077C44.5694 21.0344 44.7636 21.1829 44.5922 21.0496C44.4285 20.9239 44.5884 21.0496 44.6265 21.0801C44.676 21.122 44.7255 21.1601 44.775 21.202C45.1445 21.5105 45.4911 21.8494 45.8072 22.2112C45.8871 22.3026 45.9633 22.3902 46.0395 22.4855C46.0738 22.5274 46.108 22.5731 46.1423 22.615C46.2185 22.7102 46.0319 22.474 46.0471 22.4931C46.0776 22.5274 46.1042 22.5654 46.1309 22.6035C46.2718 22.794 46.4051 22.9844 46.5308 23.1862C46.8126 23.6318 47.0564 24.0965 47.2621 24.5802C47.224 24.4888 47.1859 24.3974 47.1478 24.306C47.4829 25.102 47.7077 25.9322 47.8257 26.7854C47.8105 26.6825 47.7991 26.5835 47.7838 26.4807C47.8981 27.3452 47.8981 28.2212 47.7838 29.0896C47.7991 28.9867 47.8105 28.8877 47.8257 28.7849C47.7077 29.638 47.4829 30.4721 47.1478 31.2643C47.1859 31.1729 47.224 31.0815 47.2621 30.99C47.0259 31.5385 46.7441 32.0679 46.4127 32.5668C46.3328 32.6887 46.249 32.8067 46.1652 32.921C46.1347 32.9629 45.9786 33.1686 46.108 33.001C46.2375 32.8334 46.0623 33.0581 46.0281 33.1C45.8453 33.3476 45.632 33.5799 45.4111 33.8046C44.9883 34.2274 44.954 35.0005 45.4111 35.4194C45.8643 35.8384 46.5765 35.8727 47.0259 35.4194C47.8714 34.5701 48.5951 33.5723 49.1054 32.4868C49.6462 31.3328 49.9738 30.1445 50.1147 28.8839C50.3775 26.5645 49.8176 24.1308 48.5951 22.1465C47.2811 20.0099 45.2511 18.4026 42.886 17.58C40.6922 16.8183 38.1976 16.8068 35.9962 17.5457C34.8308 17.9342 33.7568 18.5093 32.7856 19.2596C32.1267 19.7699 31.5516 20.3603 30.9651 20.9468C30.9003 21.0115 30.8394 21.0725 30.7746 21.1372C31.3117 21.1372 31.8525 21.1372 32.3895 21.1372C31.8525 20.6002 31.3307 20.0365 30.7442 19.549C29.5254 18.5398 28.1201 17.7818 26.589 17.3705C23.6488 16.5859 20.3848 17.0773 17.8407 18.7683C15.4946 20.326 13.7769 22.7825 13.2208 25.5552C12.6914 28.1869 13.1142 30.9672 14.4853 33.2866C15.0756 34.2883 15.8526 35.13 16.6676 35.945C17.4446 36.722 18.2177 37.4951 18.9947 38.2721C20.1296 39.407 21.2646 40.542 22.3996 41.677C23.6183 42.8957 24.837 44.1145 26.0558 45.3332C27.0727 46.3501 28.0896 47.367 29.1065 48.3839C29.6397 48.9171 30.1691 49.4465 30.7023 49.9797C30.7251 50.0025 30.7518 50.0292 30.7746 50.0521C31.2126 50.49 31.9515 50.49 32.3895 50.0521C32.877 49.5646 33.3607 49.0809 33.8482 48.5934C35.0174 47.4241 36.1829 46.2587 37.3521 45.0895C38.7575 43.6841 40.1666 42.2749 41.572 40.8695C42.787 39.6546 44.0057 38.4358 45.2206 37.2209C45.8148 36.6268 46.4165 36.0441 46.9993 35.4423C47.0069 35.4347 47.0183 35.4233 47.0259 35.4156C47.4487 34.9929 47.4791 34.2159 47.0259 33.8008C46.5689 33.3857 45.8605 33.3514 45.4111 33.8046Z" fill="#D94862"/>
</svg>
