<svg id="SvgjsSvg1001" width="288" height="288" xmlns="http://www.w3.org/2000/svg" version="1.1" xmlns:xlink="http://www.w3.org/1999/xlink" xmlns:svgjs="http://svgjs.com/svgjs"><defs id="SvgjsDefs1002"></defs><g id="SvgjsG1008"><svg xmlns="http://www.w3.org/2000/svg" enable-background="new 0 0 66 66" viewBox="0 0 66 66" width="288" height="288"><path fill="none" stroke="#d94862" stroke-linecap="round" stroke-linejoin="round" stroke-miterlimit="10" stroke-width="1.5" d="M7.4 45.6c-.1.1-.1.2-.2.2l-.8 1.2c-.6 1-1.8 1.4-2.9 1.2l-1.7-.4.7-.4c1-.5 1.8-1.4 2.2-2.5l.2-.5c.5-1.3 1.6-2.2 2.9-2.3l1.8-.2h0M23.3 36c.4-.1 3.3-1.1 5.1 1 0 0-1 1.2-3.2 1.3M13.4 41.3c.6-1.9 1.6-3 2.6-3.6 1.6-1 3.3-.8 3.7-.7" class="colorStroke000 svgStroke"></path><path fill="none" stroke="#d94862" stroke-linecap="round" stroke-linejoin="round" stroke-miterlimit="10" stroke-width="1.5" d="M12.5,48.6c-1,0-1.9,0.4-2.4,1.2C9.7,50.5,9,51.4,8,52.1c-0.2,0.2-0.6,0.3-0.9,0.3h0c-1.1,0-1.8-1.2-1.2-2.1
		l0.3-0.4c0.8-1.1,1.2-2.4,1.2-3.8v-0.3c0-2,1.4-3.7,3.4-4.2c2.6-0.6,4.3-0.1,7,0.7c0,0,0.1-4.1,2.5-5.7l-0.1-1
		c0-0.7,0.9-1.1,1.4-0.5l0.6,0.7l0,0c0.7,0,1.3,0.3,1.7,0.9l2.1,3c0.5,0.6,0.5,1.5-0.1,2l0,0c-0.5,0.4-1.1,0.6-1.7,0.3l-1.6-0.6
		l-0.2,0.6c-0.5,2-0.5,4.1,0.1,6.1c0.2,0.8,0.6,1.7,0.9,2.5c0.4,0.9-0.3,1.9-1.3,1.9l0,0c-0.3,0-0.6-0.1-0.9-0.3
		c-0.9-0.7-1.7-1.4-2.3-2.3c-0.5-0.8-1.4-1.2-2.4-1.2L12.5,48.6z" class="colorStroke000 svgStroke"></path><path fill="none" stroke="#d94862" stroke-linecap="round" stroke-linejoin="round" stroke-miterlimit="10" stroke-width="1.5" d="M11.3 41.5v2.2c0 .8.7 1.5 1.5 1.5h1.4c.8 0 1.5-.7 1.5-1.5v-1.9M43.2 45.6c-.1.1-.1.2-.2.2l-.8 1.2c-.6 1-1.8 1.4-2.9 1.2l-1.7-.4.7-.4c1-.5 1.8-1.4 2.1-2.5l.2-.5c.5-1.3 1.6-2.2 2.9-2.3l1.8-.2h0M59.2 36c.5-.1 4.1-1 5.1 1 0 0-1 1.2-3.2 1.3M55.5 37.1c-.4-.1-2-.3-3.5.5-1.1.6-2.1 1.7-2.8 3.7" class="colorStroke000 svgStroke"></path><path fill="none" stroke="#d94862" stroke-linecap="round" stroke-linejoin="round" stroke-miterlimit="10" stroke-width="1.5" d="M61.9,39.6L61,38.3l-1.2-1.6c-0.2-0.3-0.4-0.5-0.7-0.6c-0.3-0.2-0.7-0.3-1.1-0.3L57.5,35
		c-0.5-0.6-1.5-0.2-1.4,0.5l0,1c-0.2,0.2-0.4,0.4-0.6,0.6c-1.8,1.9-1.9,5.2-1.9,5.2C53,42.1,52.5,42,52,41.8c-1-0.3-1.9-0.5-2.8-0.5
		c0,0,0,0,0,0c-0.2,0-0.3,0-0.5,0c-0.1,0-0.3,0-0.4,0c-0.4,0-0.8,0.1-1.3,0.2c-0.1,0-0.2,0-0.3,0.1c-0.4,0.1-0.8,0.3-1.2,0.5h0
		c-1.3,0.7-2.1,2.1-2.2,3.5c0,0.1,0,0.1,0,0.2v0.3c0,1.3-0.4,2.7-1.2,3.8l-0.3,0.4c-0.6,0.9,0.1,2.1,1.2,2.1h0
		c0.3,0,0.6-0.1,0.9-0.3c1-0.7,1.6-1.6,2.1-2.3c0.5-0.8,1.4-1.2,2.4-1.2h0.8l2.8,0h0.4c1,0,1.8,0.5,2.4,1.2c0.6,0.9,1.4,1.6,2.3,2.3
		c0.2,0.2,0.6,0.3,0.9,0.3c1,0,1.8-1,1.3-1.9c-0.4-0.8-0.7-1.7-0.9-2.5c-0.6-2-0.6-4.1-0.1-6.1l0.2-0.6l1.6,0.6
		c0.2,0.1,0.4,0.1,0.6,0.1c0.4,0,0.8-0.2,1.2-0.4C62.4,41.1,62.4,40.2,61.9,39.6z M51.4,41.7v1.9c0,0.2-0.1,0.4-0.1,0.6" class="colorStroke000 svgStroke"></path><line x1="15.9" x2="15.9" y1="37.8" y2="27.9" fill="none" stroke="#d94862" stroke-linecap="round" stroke-linejoin="round" stroke-miterlimit="10" stroke-width="1.5" class="colorStroke000 svgStroke"></line><line x1="15.9" x2="15.9" y1="57.3" y2="48.6" fill="none" stroke="#d94862" stroke-linecap="round" stroke-linejoin="round" stroke-miterlimit="10" stroke-width="1.5" class="colorStroke000 svgStroke"></line><line x1="13.1" x2="13.1" y1="57.3" y2="48.6" fill="none" stroke="#d94862" stroke-linecap="round" stroke-linejoin="round" stroke-miterlimit="10" stroke-width="1.5" class="colorStroke000 svgStroke"></line><line x1="13.1" x2="13.1" y1="41.3" y2="29.8" fill="none" stroke="#d94862" stroke-linecap="round" stroke-linejoin="round" stroke-miterlimit="10" stroke-width="1.5" class="colorStroke000 svgStroke"></line><line x1="52" x2="52" y1="37.7" y2="29.4" fill="none" stroke="#d94862" stroke-linecap="round" stroke-linejoin="round" stroke-miterlimit="10" stroke-width="1.5" class="colorStroke000 svgStroke"></line><line x1="52" x2="52" y1="57.3" y2="48.6" fill="none" stroke="#d94862" stroke-linecap="round" stroke-linejoin="round" stroke-miterlimit="10" stroke-width="1.5" class="colorStroke000 svgStroke"></line><line x1="49.2" x2="49.2" y1="57.3" y2="48.6" fill="none" stroke="#d94862" stroke-linecap="round" stroke-linejoin="round" stroke-miterlimit="10" stroke-width="1.5" class="colorStroke000 svgStroke"></line><line x1="49.2" x2="49.2" y1="41.3" y2="29.1" fill="none" stroke="#d94862" stroke-linecap="round" stroke-linejoin="round" stroke-miterlimit="10" stroke-width="1.5" class="colorStroke000 svgStroke"></line><line x1="35.2" x2="35.2" y1="57.3" y2="29.2" fill="none" stroke="#d94862" stroke-linecap="round" stroke-linejoin="round" stroke-miterlimit="10" stroke-width="1.5" class="colorStroke000 svgStroke"></line><line x1="30.8" x2="30.8" y1="57.3" y2="29.2" fill="none" stroke="#d94862" stroke-linecap="round" stroke-linejoin="round" stroke-miterlimit="10" stroke-width="1.5" class="colorStroke000 svgStroke"></line><path fill="none" stroke="#d94862" stroke-linecap="round" stroke-linejoin="round" stroke-miterlimit="10" stroke-width="1.5" d="M5.2 30L5.2 30c-1.9 0-3.5-1.6-3.5-3.5V23h6.9v3.5C8.7 28.4 7.1 30 5.2 30zM12.2 30L12.2 30c-1.9 0-3.5-1.6-3.5-3.5V23h6.9v3.5C15.6 28.4 14.1 30 12.2 30zM19.1 30L19.1 30c-1.9 0-3.5-1.6-3.5-3.5V23h6.9v3.5C22.6 28.4 21 30 19.1 30zM26.1 30L26.1 30c-1.9 0-3.5-1.6-3.5-3.5V23h6.9v3.5C29.5 28.4 28 30 26.1 30zM33 30L33 30c-1.9 0-3.5-1.6-3.5-3.5V23h6.9v3.5C36.5 28.4 34.9 30 33 30z" class="colorStroke000 svgStroke"></path><path fill="none" stroke="#d94862" stroke-linecap="round" stroke-linejoin="round" stroke-miterlimit="10" stroke-width="1.5" d="M39.9 30L39.9 30c-1.9 0-3.5-1.6-3.5-3.5V23h6.9v3.5C43.4 28.4 41.9 30 39.9 30zM46.9 30L46.9 30c-1.9 0-3.5-1.6-3.5-3.5V23h6.9v3.5C50.4 28.4 48.8 30 46.9 30z" class="colorStroke000 svgStroke"></path><path fill="none" stroke="#d94862" stroke-linecap="round" stroke-linejoin="round" stroke-miterlimit="10" stroke-width="1.5" d="M53.8 30L53.8 30c-1.9 0-3.5-1.6-3.5-3.5V23h6.9v3.5C57.3 28.4 55.8 30 53.8 30zM60.8 30L60.8 30c-1.9 0-3.5-1.6-3.5-3.5V23h6.9v3.5C64.2 28.4 62.7 30 60.8 30zM64.2 23c0 0-22.3-8.4-31.2-21C24 14.7 1.8 23 1.8 23M25.7 13.4c-1.9 1.4-3.9 2.8-5.9 4" class="colorStroke000 svgStroke"></path><line x1="16.9" x2="15.7" y1="19.1" y2="19.8" fill="none" stroke="#d94862" stroke-linecap="round" stroke-linejoin="round" stroke-miterlimit="10" stroke-width="1.5" class="colorStroke000 svgStroke"></line><path fill="none" stroke="#d94862" stroke-linecap="round" stroke-linejoin="round" stroke-miterlimit="10" stroke-width="1.5" d="M44.9 23c0 0-8.5-8.4-11.9-21-3.4 12.6-11.9 21-11.9 21M64.2 64H1.8l2.1-4c.9-1.7 2.6-2.7 4.5-2.7h49.4c1.9 0 3.6 1 4.5 2.7L64.2 64zM51.3 44.3c-.2.5-.8.9-1.4.9h-.7-.7c-.8 0-1.5-.7-1.5-1.5v-2.1-.1" class="colorStroke000 svgStroke"></path><line x1="54.5" x2="39.1" y1="60.6" y2="60.6" fill="none" stroke="#d94862" stroke-linecap="round" stroke-linejoin="round" stroke-miterlimit="10" stroke-width="1.5" class="colorStroke000 svgStroke"></line><line x1="31.8" x2="28.8" y1="60.6" y2="60.6" fill="none" stroke="#d94862" stroke-linecap="round" stroke-linejoin="round" stroke-miterlimit="10" stroke-width="1.5" class="colorStroke000 svgStroke"></line></svg></g></svg>