<svg id="SvgjsSvg1034" width="288" height="288" xmlns="http://www.w3.org/2000/svg" version="1.1" xmlns:xlink="http://www.w3.org/1999/xlink" xmlns:svgjs="http://svgjs.com/svgjs"><defs id="SvgjsDefs1035"></defs><g id="SvgjsG1036"><svg xmlns="http://www.w3.org/2000/svg" fill-rule="evenodd" stroke-linejoin="round" stroke-miterlimit="2" clip-rule="evenodd" viewBox="0 0 64 64" width="288" height="288"><rect width="64" height="64" fill="none"></rect><path fill="#dcbda8" d="M60,50C60,46.689 57.311,44 54,44L10,44C6.689,44 4,46.689 4,50C4,53.311 6.689,56 10,56L54,56C57.311,56 60,53.311 60,50Z" class="color364f6b svgShape"></path><path fill="#d94862" d="M60,32C60,28.689 57.311,26 54,26L10,26C6.689,26 4,28.689 4,32C4,35.311 6.689,38 10,38L54,38C57.311,38 60,35.311 60,32ZM60,14C60,10.689 57.311,8 54,8C54,8 10,8 10,8C6.689,8 4,10.689 4,14C4,17.311 6.689,20 10,20C10,20 54,20 54,20C57.311,20 60,17.311 60,14Z" class="color3fc1c9 svgShape"></path></svg></g></svg>