<svg width="45" height="45" viewBox="0 0 45 45" fill="none" xmlns="http://www.w3.org/2000/svg">
<g clip-path="url(#clip0_2_11)">
<path fill-rule="evenodd" clip-rule="evenodd" d="M17.4468 17.3166C17.6197 17.1375 17.8266 16.9947 18.0554 16.8964C18.2842 16.7982 18.5302 16.7464 18.7792 16.7443C19.0281 16.7421 19.275 16.7895 19.5054 16.8838C19.7359 16.9781 19.9452 17.1173 20.1213 17.2934C20.2973 17.4694 20.4365 17.6788 20.5308 17.9092C20.6251 18.1396 20.6725 18.3865 20.6704 18.6355C20.6682 18.8845 20.6165 19.1305 20.5182 19.3593C20.42 19.588 20.2771 19.7949 20.098 19.9679L13.6968 26.3691H31.348L24.9468 19.9679C24.6052 19.6142 24.4162 19.1406 24.4205 18.649C24.4248 18.1574 24.622 17.6871 24.9696 17.3395C25.3173 16.9918 25.7875 16.7946 26.2792 16.7904C26.7708 16.7861 27.2444 16.9751 27.598 17.3166L35.5537 25.2704C35.8612 25.5797 36.0412 25.9679 36.088 26.3691H38.9849C39.2622 26.3693 39.536 26.431 39.7866 26.5497C40.0372 26.6684 40.2583 26.8413 40.4341 27.0557C40.6098 27.2702 40.7358 27.521 40.803 27.7901C40.8701 28.0591 40.8768 28.3397 40.8224 28.6116L35.9474 43.6116C35.8625 44.0365 35.633 44.4189 35.298 44.6937C34.963 44.9685 34.5432 45.1189 34.1099 45.1191H10.9349C10.5016 45.1189 10.0818 44.9685 9.74678 44.6937C9.41179 44.4189 9.18233 44.0365 9.0974 43.6116L4.2224 28.6116C4.16805 28.3397 4.17469 28.0591 4.24184 27.7901C4.30899 27.521 4.43498 27.2702 4.61073 27.0557C4.78648 26.8413 5.00762 26.6684 5.25821 26.5497C5.5088 26.431 5.78261 26.3693 6.0599 26.3691H8.95678C9.00667 25.9533 9.19487 25.5663 9.49115 25.2704L17.4468 17.3166ZM13.1474 31.0566C13.1474 30.808 13.2462 30.5695 13.422 30.3937C13.5978 30.2179 13.8363 30.1191 14.0849 30.1191C14.3335 30.1191 14.572 30.2179 14.7478 30.3937C14.9236 30.5695 15.0224 30.808 15.0224 31.0566V40.4316C15.0224 40.6803 14.9236 40.9187 14.7478 41.0945C14.572 41.2703 14.3335 41.3691 14.0849 41.3691C13.8363 41.3691 13.5978 41.2703 13.422 41.0945C13.2462 40.9187 13.1474 40.6803 13.1474 40.4316V31.0566ZM18.7724 31.0566C18.7724 30.808 18.8712 30.5695 19.047 30.3937C19.2228 30.2179 19.4613 30.1191 19.7099 30.1191C19.9585 30.1191 20.197 30.2179 20.3728 30.3937C20.5486 30.5695 20.6474 30.808 20.6474 31.0566V40.4316C20.6474 40.6803 20.5486 40.9187 20.3728 41.0945C20.197 41.2703 19.9585 41.3691 19.7099 41.3691C19.4613 41.3691 19.2228 41.2703 19.047 41.0945C18.8712 40.9187 18.7724 40.6803 18.7724 40.4316V31.0566ZM25.3349 30.1191C25.0863 30.1191 24.8478 30.2179 24.672 30.3937C24.4962 30.5695 24.3974 30.808 24.3974 31.0566V40.4316C24.3974 40.6803 24.4962 40.9187 24.672 41.0945C24.8478 41.2703 25.0863 41.3691 25.3349 41.3691C25.5835 41.3691 25.822 41.2703 25.9978 41.0945C26.1736 40.9187 26.2724 40.6803 26.2724 40.4316V31.0566C26.2724 30.808 26.1736 30.5695 25.9978 30.3937C25.822 30.2179 25.5835 30.1191 25.3349 30.1191ZM30.0224 31.0566C30.0224 30.808 30.1212 30.5695 30.297 30.3937C30.4728 30.2179 30.7113 30.1191 30.9599 30.1191C31.2085 30.1191 31.447 30.2179 31.6228 30.3937C31.7986 30.5695 31.8974 30.808 31.8974 31.0566V40.4316C31.8974 40.6803 31.7986 40.9187 31.6228 41.0945C31.447 41.2703 31.2085 41.3691 30.9599 41.3691C30.7113 41.3691 30.4728 41.2703 30.297 41.0945C30.1212 40.9187 30.0224 40.6803 30.0224 40.4316V31.0566Z" fill="#DCBDA8"/>
</g>
<defs>
<clipPath id="clip0_2_11">
<rect width="45" height="45" fill="white"/>
</clipPath>
</defs>
</svg>
