<svg width="63" height="64" viewBox="0 0 63 64" fill="none" xmlns="http://www.w3.org/2000/svg">
<path d="M62.5 32C62.5 49.4044 48.6134 63.5 31.5 63.5C14.3866 63.5 0.5 49.4044 0.5 32C0.5 14.5956 14.3866 0.5 31.5 0.5C48.6134 0.5 62.5 14.5956 62.5 32Z" fill="#FCFCFA" stroke="#DCBDA8"/>
<g clip-path="url(#clip0_59_20)">
<path fill-rule="evenodd" clip-rule="evenodd" d="M26.4468 17.3166C26.6197 17.1375 26.8266 16.9946 27.0554 16.8964C27.2842 16.7981 27.5302 16.7464 27.7792 16.7442C28.0281 16.742 28.275 16.7895 28.5054 16.8838C28.7359 16.978 28.9452 17.1173 29.1213 17.2933C29.2973 17.4694 29.4365 17.6787 29.5308 17.9091C29.6251 18.1396 29.6725 18.3865 29.6704 18.6354C29.6682 18.8844 29.6165 19.1304 29.5182 19.3592C29.42 19.5879 29.2771 19.7948 29.098 19.9678L22.6968 26.3691H40.348L33.9468 19.9678C33.6052 19.6142 33.4162 19.1405 33.4205 18.6489C33.4248 18.1573 33.622 17.687 33.9696 17.3394C34.3173 16.9918 34.7875 16.7946 35.2791 16.7903C35.7708 16.786 36.2444 16.975 36.598 17.3166L44.5537 25.2703C44.8612 25.5797 45.0412 25.9678 45.088 26.3691H47.9849C48.2622 26.3692 48.536 26.4309 48.7866 26.5496C49.0372 26.6684 49.2583 26.8412 49.4341 27.0557C49.6098 27.2702 49.7358 27.521 49.803 27.79C49.8701 28.059 49.8768 28.3396 49.8224 28.6116L44.9474 43.6116C44.8625 44.0364 44.633 44.4188 44.298 44.6936C43.963 44.9685 43.5432 45.1188 43.1099 45.1191H19.9349C19.5016 45.1188 19.0818 44.9685 18.7468 44.6936C18.4118 44.4188 18.1823 44.0364 18.0974 43.6116L13.2224 28.6116C13.1681 28.3396 13.1747 28.059 13.2418 27.79C13.309 27.521 13.435 27.2702 13.6107 27.0557C13.7865 26.8412 14.0076 26.6684 14.2582 26.5496C14.5088 26.4309 14.7826 26.3692 15.0599 26.3691H17.9568C18.0067 25.9532 18.1949 25.5663 18.4912 25.2703L26.4468 17.3166ZM22.1474 31.0566C22.1474 30.8079 22.2462 30.5695 22.422 30.3936C22.5978 30.2178 22.8363 30.1191 23.0849 30.1191C23.3335 30.1191 23.572 30.2178 23.7478 30.3936C23.9236 30.5695 24.0224 30.8079 24.0224 31.0566V40.4316C24.0224 40.6802 23.9236 40.9187 23.7478 41.0945C23.572 41.2703 23.3335 41.3691 23.0849 41.3691C22.8363 41.3691 22.5978 41.2703 22.422 41.0945C22.2462 40.9187 22.1474 40.6802 22.1474 40.4316V31.0566ZM27.7724 31.0566C27.7724 30.8079 27.8712 30.5695 28.047 30.3936C28.2228 30.2178 28.4613 30.1191 28.7099 30.1191C28.9585 30.1191 29.197 30.2178 29.3728 30.3936C29.5486 30.5695 29.6474 30.8079 29.6474 31.0566V40.4316C29.6474 40.6802 29.5486 40.9187 29.3728 41.0945C29.197 41.2703 28.9585 41.3691 28.7099 41.3691C28.4613 41.3691 28.2228 41.2703 28.047 41.0945C27.8712 40.9187 27.7724 40.6802 27.7724 40.4316V31.0566ZM34.3349 30.1191C34.0863 30.1191 33.8478 30.2178 33.672 30.3936C33.4962 30.5695 33.3974 30.8079 33.3974 31.0566V40.4316C33.3974 40.6802 33.4962 40.9187 33.672 41.0945C33.8478 41.2703 34.0863 41.3691 34.3349 41.3691C34.5835 41.3691 34.822 41.2703 34.9978 41.0945C35.1736 40.9187 35.2724 40.6802 35.2724 40.4316V31.0566C35.2724 30.8079 35.1736 30.5695 34.9978 30.3936C34.822 30.2178 34.5835 30.1191 34.3349 30.1191ZM39.0224 31.0566C39.0224 30.8079 39.1212 30.5695 39.297 30.3936C39.4728 30.2178 39.7113 30.1191 39.9599 30.1191C40.2085 30.1191 40.447 30.2178 40.6228 30.3936C40.7986 30.5695 40.8974 30.8079 40.8974 31.0566V40.4316C40.8974 40.6802 40.7986 40.9187 40.6228 41.0945C40.447 41.2703 40.2085 41.3691 39.9599 41.3691C39.7113 41.3691 39.4728 41.2703 39.297 41.0945C39.1212 40.9187 39.0224 40.6802 39.0224 40.4316V31.0566Z" fill="#DCBDA8"/>
</g>
<defs>
<clipPath id="clip0_59_20">
<rect width="45" height="45" fill="white" transform="translate(9)"/>
</clipPath>
</defs>
</svg>

