<?xml version="1.0" encoding="UTF-8"?>
<svg xmlns="http://www.w3.org/2000/svg" xmlns:xlink="http://www.w3.org/1999/xlink" viewBox="0 0 856.12 918.62">
  <defs>
    <style>
      .cls-1 {
        fill: #3f3f3f;
      }

      .cls-2, .cls-3 {
        fill: none;
      }

      .cls-4 {
        fill: #d94862;
      }

      .cls-5 {
        fill: #3a3a3a;
      }

      .cls-3 {
        stroke: #d94862;
        stroke-miterlimit: 10;
        stroke-width: 21px;
      }

      .cls-6 {
        fill: #f2f1ef;
      }

      .cls-7 {
        clip-path: url(#clippath);
      }

      .cls-8 {
        isolation: isolate;
        opacity: .1;
      }
    </style>
    <clipPath id="clippath">
      <path class="cls-2" d="M548.71,608.96c79.1-61.07,130.05-156.84,130.05-264.5,0-184.44-149.52-333.96-333.96-333.96S10.84,160.02,10.84,344.46s149.52,333.96,333.96,333.96c76.78,0,147.5-25.91,203.91-69.46"/>
    </clipPath>
  </defs>
  <g id="baby-dinosaur">
    <g class="cls-7">
      <g>
        <path class="cls-4" d="M336.1,692.32l18.08,112.78c1.03,6.43-3.84,12.35-10.26,12.34-16.3-.04-44.76,1.81-59.95,14.07-22.09,17.83,13.5,10.37,13.5,10.37,0,0-40.92,21.98,6.55,24.05,0,0-25.37,16.17,9.82,15.76,21.11-.25,47.96-6.77,66.07-11.94,10.71-3.06,17.46-13.8,15.36-24.87-3.46-18.21-5.47-47.27,7.36-75.56,20.87-46.03,9.82-74.64,9.82-74.64l-76.34-2.35h0ZM349.64,480.72s-18.96,81.05-122.47,46.26c-13.42-4.51-26.46-.57-51.65,23.38-7.71,7.33-49.28,2.77-9.72-41.73,0,0-48.38,4.09-10.98-31.22,0,0-29.63-27.83,10.06-32.53,27.19-3.22,50.97,13.91,63.86,29.99,11.89,14.83,31.06,22.81,49.52,18.95,13.81-2.89,28.16-12.31,37.66-35.71l33.72,22.6h0Z"/>
        <path class="cls-4" d="M575.38,657.23c17.48,10.81,36.89,18.27,57.3,21.28,30.7,4.54,62.07-.17,93.1-1.68,31.2-1.68,63.73.17,90.78,15.81,27.05,15.81,46.3,48.94,37.34,79.21-37.51-29.43-88.78-39.86-134.59-27.41-40.66,10.93-75.01,38.18-113.18,56.17-2.76,1.48-5.58,2.83-8.46,4.04-91.11,39.35-198.81,14.3-283.61-37.5-33.85-20.69-66.21-46.59-84.97-81.9-23.9-45.41-21.91-101.92-2.82-149.68,18.92-47.93,53.1-88.13,91.11-122.43,24.23-21.86,52.61-46.75,51.45-79.55l136.58-51.13c21.91,33.81,19.75,78.04,11.28,117.73-8.63,39.52-22.74,78.37-22.07,118.9.85,56,33.85,109.14,80.77,138.15-16.39,71.33-32.77,142.67-49.16,214"/>
        <path class="cls-8" d="M434.61,484.04c18.19,29.71,10.73,72.35-27.07,98.47-7.59,5.54-15.99,9.18-24.22,13.09-32.19,11.3-29.64,4.35-48.17,49.14-1.49-59.48,31.97-56.23,41.89-63.74,7.19-3.97,14.78-7.35,21.11-12.34,30.01-20.12,42.01-50.12,36.47-84.62h0Z"/>
        <path class="cls-8" d="M333.83,551.98c43.12-4.57,55.5-26.52,60.4-65.89,12.01,17.81,10.91,41.54-4,57.77-16.45,17.43-41.45,18.79-56.4,8.11Z"/>
        <path class="cls-4" d="M403.89,728.15c11.78,10.93,25.22,19.68,39.5,26.91,4.15,2.35,8.46,4.37,12.94,6.22,15.77,7.06,32.36,12.61,48.96,17.49l6.97,2.02c4.81,1.35,9.63,2.69,14.44,3.87,26.22,6.9,52.77,12.11,79.49,15.98-2.76,1.48-5.58,2.83-8.46,4.04-26.88,11.6-55.43,17.66-84.3,19-5.48.17-10.95.34-16.43.17-10.12,0-20.41-.67-30.53-2.02-4.95-.5-9.87-1.17-14.77-2.02-48.29-7.9-95.75-27.08-137.57-52.64-19.32-11.81-38.15-25.31-54.25-41.29"/>
        <path class="cls-4" d="M259.86,725.88c-12.11-12.02-22.67-25.45-30.72-40.61-23.9-45.41-21.91-101.92-2.82-149.68,18.92-47.93,53.1-88.13,91.11-122.44,24.23-21.86,52.61-46.75,51.45-79.55l34.52-12.95c-8.96,45.07-25.06,114.7-37.01,151.36-29.14,90.71-31.53,192.45,37.51,256.14"/>
        <path class="cls-8" d="M466.45,821.83c-4.95-.5-9.87-1.17-14.77-2.02-1.83-7.74-3.32-15.81-4.81-23.71-1.99-13.45-3.48-27.25-3.48-41.04-.33-8.58.17-17.15,1.16-25.73,4.98,10.43,8.79,21.19,11.78,31.95,2.99,10.6,5.14,21.36,6.97,32.12,1.49,9.42,2.65,18.84,3.15,28.42ZM528.85,770.87c-.33,4.54-1,9.25-2.16,13.79-1.66,8.74-4.48,17.15-8.13,25.23-1.99,4.54-3.82,9.08-5.14,13.79-5.48.17-10.95.34-16.43.17,1.33-7.23,3.65-14.29,6.64-21.02,3.29-7.17,6.17-14.53,8.63-22.03,1.49-4.04,2.66-8.07,3.82-12.11,2.99-11.77,5.31-23.88,4.81-37,7.3,11.27,8.8,25.73,7.97,39.19Z"/>
        <path class="cls-4" d="M444.62,729.25l18.08,112.78c1.03,6.43-3.83,12.35-10.26,12.34-16.3-.04-44.76,1.81-59.95,14.07-22.09,17.83,13.5,10.37,13.5,10.37,0,0-40.92,21.98,6.55,24.05,0,0-25.37,16.17,9.82,15.76,21.11-.25,47.96-6.77,66.07-11.94,10.7-3.06,17.46-13.8,15.36-24.87-3.46-18.21-5.47-47.27,7.36-75.56,20.87-46.03,9.82-74.64,9.82-74.64l-76.34-2.35h0ZM198.17,212.03s-52.81-26.76-84.49,41.92c-31.68,68.68,97.69,96.33,97.69,96.33,0,0,62.27,100.85,233.22,20.51,157.53-74.03,30.8-313.95-61.61-311.27-92.41,2.68-159.29-4.46-184.82,152.51Z"/>
        <path class="cls-6" d="M396.31,321.08s44.32,52.88,29.67-24.63M405.94,193.08c0,24.05-15.43,43.39-34.68,43.39s-34.68-19.34-34.68-43.39,15.6-43.56,34.68-43.56,34.68,19.51,34.68,43.56Z"/>
        <ellipse class="cls-1" cx="375.74" cy="196.62" rx="18.75" ry="19"/>
        <ellipse class="cls-6" cx="366.99" cy="184.13" rx="8.75" ry="8.87"/>
        <path class="cls-6" d="M298.82,177.7c0,24.05-15.43,43.39-34.68,43.39s-34.68-19.34-34.68-43.39,15.6-43.56,34.68-43.56,34.68,19.51,34.68,43.56Z"/>
        <ellipse class="cls-1" cx="268.62" cy="181.23" rx="18.75" ry="19"/>
        <ellipse class="cls-6" cx="259.86" cy="168.74" rx="8.75" ry="8.87"/>
        <path class="cls-5" d="M339.97,143.14c5.12-12.11,22.49-18.17,36.67-17.17,14.35,1.17,28.18,9.78,34.21,22.41-11.04-8.13-22.63-13.09-34.89-14.03-11.41-1.14-26.6,1.44-35.98,8.8h0ZM234.21,127.9c5.12-12.11,22.49-18.17,36.67-17.17,14.35,1.17,28.17,9.78,34.21,22.41-11.04-8.13-22.63-13.09-34.89-14.03-11.41-1.14-26.6,1.44-35.99,8.8ZM223.99,272.27c2.27-2.8,5.29-5.1,8.77-5.9,3.49-.8,7.45.1,9.87,2.77,1.85,2.05,2.64,4.95,2.45,7.72-.38,5.47-4.69,10.4-10,11.44-4.3.84-8.85-.93-11.74-4.2-3.47-3.92-2.58-7.84.66-11.84h0ZM168.46,252.24c2.36-2.09,5.49-3.4,8.61-3.11,4.27.39,7.98,3.91,8.98,8.14s-.59,8.88-3.71,11.86c-3.13,2.97-7.62,4.28-11.88,3.83-2.54-.27-5.2-1.29-6.57-3.48-3.48-5.58.3-13.44,4.58-17.23h0ZM205.3,350.44c42.54,9.68,90.4,6.19,123.45-5.3,44.73-14.18,71.07-34.05,106.38-64.63-37.21,42.5-62.64,58.19-103.93,72.66-45.18,14.04-92.25,11.02-125.9-2.72h0Z"/>
        <path class="cls-4" d="M434.61,484.04s32.15,76.66-71.55,110.85c-13.45,4.43-21.64,15.44-27.91,49.86-1.92,10.54-38.06,31.85-32.24-27.76,0,0-36.56,32.37-27.11-18.54,0,0-40.14-4.6-10.93-32.24,20.01-18.93,49.18-19.43,68.97-14.22,35.94,9.45,72.18-18.02,60.4-65.89l40.38-2.06h0Z"/>
      </g>
    </g>
  </g>
  <g id="Calque_3">
    <path class="cls-3" d="M548.37,608.96c79.1-61.07,130.05-156.84,130.05-264.5,0-184.44-149.52-333.96-333.96-333.96S10.5,160.02,10.5,344.46s149.52,333.96,333.96,333.96c76.78,0,147.5-25.91,203.91-69.46"/>
  </g>
</svg>